<?xml version="1.0" encoding="utf-8"?>
<!-- Generator: Adobe Illustrator 25.4.1, SVG Export Plug-In . SVG Version: 6.00 Build 0)  -->
<svg version="1.1" xmlns="http://www.w3.org/2000/svg" xmlns:xlink="http://www.w3.org/1999/xlink" x="0px" y="0px"
	 viewBox="0 0 500 500" style="enable-background:new 0 0 500 500;" xml:space="preserve">
<style type="text/css">
	.st0{fill:#F0F0F0;}
	.st1{fill:#E0E0E0;}
	.st2{fill:#27DEBF;}
	.st3{opacity:0.6;}
	.st4{opacity:0.3;}
	.st5{opacity:0.5;}
	.st6{fill:#263238;}
	.st7{opacity:0.7;}
	.st8{fill:#FAFAFA;}
	.st9{opacity:0.4;}
	.st10{fill:#FFFFFF;}
	.st11{opacity:0.15;}
	.st12{opacity:0.5;fill:#FFFFFF;}
	.st13{fill:#455A64;}
	.st14{fill:#37474F;}
	.st15{opacity:0.4;fill:#FFFFFF;}
	.st16{opacity:0.2;}
	.st17{opacity:0.1;}
	.st18{fill:#E6E6E6;}
	.st19{fill:#FFA8A7;}
	.st20{fill:#F28F8F;}
	.st21{opacity:0.15;fill:none;stroke:#000000;stroke-miterlimit:10;}
</style>
<g id="Floor">
	<path class="st0" d="M304.95,244.27c-47.04,12.69-95.35,18.94-143.52,25.72c9.98,0.17,19.98-0.03,29.96-0.35
		c19.01-0.6,37.85-1.33,56.88-1.2c38.74,0.26,77.49,1.3,116.17,3.43c28.56,1.57,57.02,3.96,85.41,6.95
		c-9.47-8.89-20.86-17.28-34.2-24.98c-57.72-33.33-137.94-45.74-212.43-37.25c-0.15,0.9-0.6,1.79-1.46,2.57
		c-14.46,13.06-31.88,22-51.09,25.54c-4.75,0.88-9.53,1.15-14.3,1.8c-5.26,0.72-10.52,2.6-15.65,3.93
		c-10.51,2.72-21.03,5.4-31.57,8.02c-7.52,1.87-15.05,3.71-22.59,5.52c-2.31,1.63-4.53,3.28-6.69,4.95
		c30.63-4.66,61.27-9.25,91.95-13.54c50.6-7.08,100.56-19.27,151.81-20.94C309.35,234.26,310.32,242.82,304.95,244.27z"/>
	<path class="st0" d="M228.54,278.38c-16-0.22-32.05,1.24-48.05,1.55c-11.18,0.21-22.38,0.24-33.54-0.48
		c-8.06-0.52-16.86-1.02-24.42-4.13c-2-0.82-3.38-3.09-3.53-5.22c-18.17,2.72-36.34,5.42-54.51,8.18
		c-6.21,0.94-12.42,1.89-18.64,2.84c-53.13,52.14-40.93,120.34,36.6,165.1c92.01,53.12,241.19,53.12,333.2,0
		c73.35-42.35,88.22-105.67,44.63-156.53C383.2,281.14,306,279.42,228.54,278.38z"/>
	<path class="st0" d="M118.05,240.79c5.24-1.36,10.62-3.28,15.97-4.09c4.64-0.7,9.34-0.79,13.98-1.64
		c13.44-2.46,25.93-7.64,36.98-15.3c-1.17-0.04-2.33-0.05-3.5-0.08c-30.38,5.23-59.29,14.08-84.7,26.54
		C103.87,244.43,110.97,242.63,118.05,240.79z"/>
</g>
<g id="Shadow">
	<path id="Shadow_43_" class="st1" d="M384.36,397.22c-15.45-8.92-15.45-23.38,0-32.3c15.45-8.92,40.5-8.92,55.95,0
		c15.45,8.92,15.45,23.38,0,32.3C424.86,406.14,399.81,406.14,384.36,397.22z"/>
	<path class="st1" d="M274.16,233.73c-2.29-1.32-6.01-1.32-8.3,0l-8.03,4.64c6.78-0.88,13.58-1.65,20.39-2.29L274.16,233.73z"/>
	<path class="st1" d="M248.27,268.44c17.93,0.12,35.86,0.42,53.79,0.9l12.75-7.36c2.29-1.32,2.29-3.47,0-4.79l-18.49-10.67
		c-26.2,6.62-52.76,11.39-79.45,15.5l-12.48,7.21C219.01,268.76,233.58,268.34,248.27,268.44z"/>
	<path class="st1" d="M228.54,278.38c-14.12-0.19-28.29,0.92-42.42,1.39L29.48,370.21c-2.29,1.32-2.29,3.47,0,4.79l40.64,23.46
		c2.29,1.32,6.01,1.32,8.3,0l206.32-119.12C266.02,278.93,247.29,278.63,228.54,278.38z"/>
</g>
<g id="Device">
	<g id="Device_1_">
		<g id="XMLID_1341_">
			<g id="XMLID_1346_">
				<path class="st2" d="M216.83,268.85v-6.83c-5.83,0.9-11.67,1.77-17.51,2.61l-8.7,5.03c0.26-0.01,0.52-0.01,0.78-0.02
					C199.9,269.37,208.36,269.08,216.83,268.85z"/>
				<path class="st2" d="M216.83,297.59v-19.11c-12.11,0.33-24.24,1.21-36.34,1.44c-2.6,0.05-5.21,0.09-7.82,0.11l-16.86,9.75
					l0,43.07c0,2.22,1.56,4.91,3.48,6.02l30.84,17.77c7.2,4.16,18.88,4.16,26.08,0l34.94-20.2c3.6-2.08,5.4-4.8,5.4-7.53
					c0-2.73,0.02-4.86,0.02-4.86l-36.25-20.44C218.38,302.51,216.83,299.81,216.83,297.59z"/>
			</g>
			<g id="XMLID_1608_" class="st3">
				<path d="M216.83,268.85v-6.83c-5.83,0.9-11.67,1.77-17.51,2.61l-8.7,5.03c0.26-0.01,0.52-0.01,0.78-0.02
					C199.9,269.37,208.36,269.08,216.83,268.85z"/>
				<path d="M216.83,297.59v-19.11c-12.11,0.33-24.24,1.21-36.34,1.44c-2.6,0.05-5.21,0.09-7.82,0.11l-16.86,9.75l0,43.07
					c0,2.22,1.56,4.91,3.48,6.02l30.84,17.77c7.2,4.16,18.88,4.16,26.08,0l34.94-20.2c3.6-2.08,5.4-4.8,5.4-7.53
					c0-2.73,0.02-4.86,0.02-4.86l-36.25-20.44C218.38,302.51,216.83,299.81,216.83,297.59z"/>
			</g>
			<path class="st4" d="M160.01,330.42v-33.65l8.15-4.72c-0.24-2.97-0.5-6.02-0.74-8.98l-11.63,6.71v43.07
				c0,2.23,1.57,4.92,3.47,6.02l11.18,6.45v-4.84l-6.97-4.04C161.56,335.34,160.01,332.65,160.01,330.42z"/>
			<path class="st2" d="M221.04,261.51l-13.17,7.61c4.39-0.14,8.78-0.26,13.17-0.37V261.51z"/>
			<path class="st2" d="M251.15,316.53l-26.64-15.35c-1.92-1.11-3.48-3.81-3.48-6.02l0-16.77c-10.45,0.16-20.92,0.82-31.37,1.24
				l-29.65,17.13v33.66c0,2.22,1.56,4.91,3.48,6.02l26.62,15.33c7.2,4.16,18.88,4.16,26.09,0l34.95-20.2
				C258.36,327.43,258.36,320.69,251.15,316.53z"/>
			<path class="st4" d="M221.04,261.51l-13.17,7.61c4.39-0.14,8.78-0.26,13.17-0.37V261.51z"/>
			<path class="st4" d="M251.15,316.53l-26.64-15.35c-1.92-1.11-3.48-3.81-3.48-6.02l0-16.77c-10.45,0.16-20.92,0.82-31.37,1.24
				l-29.65,17.13v33.66c0,2.22,1.56,4.91,3.48,6.02l26.62,15.33c7.2,4.16,18.88,4.16,26.09,0l34.95-20.2
				C258.36,327.43,258.36,320.69,251.15,316.53z"/>
			<path class="st5" d="M221.04,295.16l0-16.77c-10.45,0.16-20.92,0.82-31.37,1.24l-29.65,17.13v33.66c0,2.22,1.56,4.91,3.48,6.02
				l6.96,4.02l61.15-35.19v-0.01l-7.08-4.09C222.59,300.08,221.04,297.38,221.04,295.16z"/>
			<path class="st5" d="M221.04,261.51l-13.17,7.61c4.39-0.14,8.78-0.26,13.17-0.37L221.04,261.51z"/>
			<path id="XMLID_1342_" class="st2" d="M256.55,324.06c0,0,0,2.13,0,4.86c0,2.73-1.81,5.44-5.4,7.53l-34.94,20.19
				c-3.45,2.01-7.93,3.01-12.45,3.09v-4.84c4.52-0.06,9-1.1,12.45-3.09l34.94-20.21C254.74,329.52,256.55,326.79,256.55,324.06z"/>
			<path id="XMLID_1610_" class="st5" d="M256.55,324.06c0,0,0,2.13,0,4.86c0,2.73-1.81,5.44-5.4,7.53l-34.94,20.19
				c-3.45,2.01-7.93,3.01-12.45,3.09v-4.84c4.52-0.06,9-1.1,12.45-3.09l34.94-20.21C254.74,329.52,256.55,326.79,256.55,324.06z"/>
		</g>
		<path class="st2" d="M76.83,223.62c26.38-5.95,53.26-11.45,80.32-13.33c8.16-1.27,16.33-2.52,24.5-3.75
			c-1.2,0.03-2.4,0.06-3.6,0.09c-28.09,0.67-56.18,1.36-84.27,2.13c-11.93,0.33-23.89,0.41-35.82,0.82l0,17.41
			c3.25-0.59,6.51-1.19,9.76-1.77C70.75,224.67,73.79,224.15,76.83,223.62z"/>
		<path class="st2" d="M287.21,142.58c-19.68,0.3-39.33,0.77-59.02,0.8c-21.53,0.03-43.12-0.14-64.63,0.71
			c-20.85,0.83-42.21,4.23-62.67,8.25c-8.52,1.67-15.89,4.32-22.96,9.32c-5.46,3.86-11.06,7.1-17.64,6.53
			c-1.39,1.64-2.35,3.85-2.35,5.78V176c2.03-0.47,4.06-0.94,6.09-1.39c15.72-3.52,31.59-6.39,47.49-8.97
			c22.27-3.62,44.71-7.09,67.19-9.16c5.31-0.49,6.3,6.82,2.52,9.32c-11.9,7.88-26.09,12.21-39.8,15.7
			c-20.81,5.29-42.06,8.07-63.19,11.56c-1.18,2.29-2.89,4.36-4.89,6.24c11.04-0.27,22.07-0.57,33.11-0.88
			c40.61-1.14,81.39-1.64,122.15-2.85c2.35-0.66,4.71-1.31,7.06-1.98c13.84-3.97,27.57-8.31,41.14-13.13
			c11.32-4.02,22.34-8.79,33.61-12.92c0.13-0.05,0.25-0.09,0.38-0.14v-24.53C302.94,142.47,295.05,142.46,287.21,142.58z"/>
		<path class="st2" d="M267.66,194.14c0.98-0.04,1.95-0.08,2.93-0.13c13.39-1.74,26.8-3.38,40.21-4.98v-11.02
			c-10.48,3.93-20.78,8.32-31.33,12.07C275.54,191.48,271.61,192.83,267.66,194.14z"/>
		<path class="st2" d="M161.44,269.99c9.98,0.17,19.98-0.03,29.96-0.35c19.01-0.6,37.85-1.33,56.88-1.2c0.57,0,1.14,0.01,1.72,0.02
			c12-6.93,22.94-13.24,32.12-18.54C242.33,258.97,201.84,264.3,161.44,269.99z"/>
		<path class="st2" d="M303.62,234.44c1.35-0.04,2.43,0.41,3.23,1.13c2.21-1.51,3.94-4.64,3.94-7.25v-26.72
			c-11.99,0.79-23.99,1.44-35.99,2c-24.07,3.14-48.12,6.49-72.14,10.01c0.95,1.73,0.92,3.88-0.91,5.53
			c-14.46,13.06-31.88,22-51.09,25.54c-4.75,0.88-9.53,1.15-14.3,1.8c-5.26,0.72-10.52,2.6-15.65,3.93
			c-10.51,2.72-21.03,5.4-31.57,8.02c-10.38,2.58-20.78,5.11-31.19,7.6v3.17c31.26-4.76,62.54-9.45,93.86-13.84
			C202.41,248.3,252.37,236.11,303.62,234.44z"/>
		<path class="st2" d="M113.03,140.31c21-3.26,41.74-6.1,63.01-6.5c21.61-0.4,43.23-0.44,64.85-0.45
			c22.88-0.01,46.63-1.99,69.9-0.78V37.41c0-2.77-1.83-6.07-4.08-7.37c-2.25-1.3-6.02-1.23-8.43,0.16L105.54,141.48
			C108.03,141.08,110.53,140.7,113.03,140.31z"/>
		<path class="st2" d="M228.54,278.38c-16-0.22-32.05,1.24-48.05,1.55c-11.18,0.21-22.38,0.24-33.54-0.48
			c-8.06-0.52-16.86-1.02-24.42-4.13c-2-0.82-3.38-3.09-3.53-5.22c-18.17,2.72-36.34,5.42-54.51,8.18c-2.18,0.33-4.35,0.66-6.53,1
			l0,85.62c0,2.77,1.83,6.07,4.08,7.37c2.25,1.3,6.02,1.23,8.43-0.16c19.39-11.19,99.72-57.57,162.25-93.67
			C231.31,278.42,229.93,278.4,228.54,278.38z"/>
		<path class="st2" d="M76.89,183.53c8.12-1.4,16.24-2.77,24.38-4.12c13.54-2.25,27.07-4.78,40.35-8.31
			c-24.78,3.45-49.53,7.51-73.95,12.93c-0.44,0.1-0.88,0.2-1.32,0.3c2.8-0.39,5.61-0.78,8.42-1.14
			C75.54,183.08,76.26,183.23,76.89,183.53z"/>
		<path class="st2" d="M118.05,240.79c5.24-1.36,10.62-3.28,15.97-4.09c4.64-0.7,9.34-0.79,13.98-1.64
			c13.44-2.46,25.93-7.64,36.98-15.3c-4.21-0.15-8.41-0.18-12.62-0.11c-7.86,1.72-15.73,3.39-23.61,5.01
			c-30.15,6.2-60.44,11.72-90.8,16.83l0,14.37c9.2-2.26,18.39-4.53,27.57-6.81C96.38,246.35,107.22,243.6,118.05,240.79z"/>
		<path class="st2" d="M287.21,142.58c-19.68,0.3-39.33,0.77-59.02,0.8c-21.53,0.03-43.12-0.14-64.63,0.71
			c-19.75,0.79-39.97,3.88-59.45,7.63l-33.66,19.43c-1.01,0.59-1.94,1.54-2.68,2.63c14.5-3.15,29.11-5.77,43.75-8.15
			c22.27-3.62,44.71-7.09,67.19-9.16c5.31-0.49,6.3,6.82,2.52,9.32c-11.9,7.88-26.09,12.21-39.8,15.7
			c-20.81,5.29-42.06,8.07-63.19,11.56c-1.18,2.29-2.89,4.36-4.89,6.24c11.04-0.27,22.07-0.57,33.11-0.88
			c40.61-1.14,81.39-1.64,122.15-2.85c2.35-0.66,4.71-1.31,7.06-1.98c13.84-3.97,27.57-8.31,41.14-13.13
			c11.32-4.02,22.34-8.79,33.61-12.92c0.13-0.05,0.25-0.09,0.38-0.14v-24.53C302.94,142.47,295.05,142.46,287.21,142.58z"/>
		<path class="st2" d="M76.89,183.53c8.12-1.4,16.24-2.77,24.38-4.12c13.54-2.25,27.07-4.78,40.35-8.31
			c-24.78,3.45-49.53,7.51-73.95,12.93c-0.44,0.1-0.88,0.2-1.32,0.3c2.8-0.39,5.61-0.78,8.42-1.14
			C75.54,183.08,76.26,183.23,76.89,183.53z"/>
		<path class="st2" d="M267.66,194.14c0.98-0.04,1.95-0.08,2.93-0.13c13.39-1.74,26.8-3.38,40.21-4.98v-11.02
			c-10.48,3.93-20.78,8.32-31.33,12.07C275.54,191.48,271.61,192.83,267.66,194.14z"/>
		<path class="st2" d="M161.44,269.99c9.98,0.17,19.98-0.03,29.96-0.35c19.01-0.6,37.85-1.33,56.88-1.2c0.57,0,1.14,0.01,1.71,0.02
			l32.11-18.54C242.33,258.97,201.84,264.3,161.44,269.99z"/>
		<path class="st2" d="M76.83,223.62c26.38-5.95,53.26-11.45,80.32-13.33c8.16-1.27,16.33-2.52,24.5-3.75
			c-1.2,0.03-2.4,0.06-3.6,0.09c-28.09,0.67-56.18,1.36-84.27,2.13c-9.21,0.25-18.44,0.36-27.66,0.58l0,16.17
			c0.53-0.1,1.07-0.2,1.6-0.29C70.75,224.67,73.79,224.15,76.83,223.62z"/>
		<path class="st2" d="M176.04,133.82c21.61-0.4,43.23-0.44,64.85-0.45c22.88-0.01,46.63-1.99,69.9-0.78V37.41
			c0-2.77-1.95-3.9-4.35-2.51L127.65,138.13C143.7,135.87,159.72,134.12,176.04,133.82z"/>
		<path class="st2" d="M228.54,278.38c-16-0.22-32.05,1.24-48.05,1.55c-11.18,0.21-22.38,0.24-33.54-0.48
			c-8.06-0.52-16.86-1.02-24.42-4.13c-2-0.82-3.38-3.09-3.53-5.22c-17.62,2.64-35.25,5.26-52.88,7.94l0,91.56
			c0,2.77,1.95,3.9,4.35,2.51l162.24-93.67C231.31,278.42,229.93,278.4,228.54,278.38z"/>
		<path class="st2" d="M303.62,234.44c1.35-0.04,2.43,0.41,3.23,1.13c2.21-1.51,3.95-4.64,3.95-7.25v-26.71
			c-11.99,0.79-23.99,1.44-35.99,2c-24.07,3.14-48.12,6.49-72.14,10.01c0.95,1.73,0.92,3.88-0.91,5.53
			c-14.46,13.06-31.88,22-51.09,25.54c-4.75,0.88-9.53,1.15-14.3,1.8c-5.26,0.72-10.52,2.6-15.65,3.93
			c-10.51,2.72-21.03,5.4-31.57,8.02c-7.67,1.91-15.35,3.78-23.03,5.63v3.9c28.55-4.33,57.11-8.59,85.7-12.59
			C202.41,248.3,252.37,236.11,303.62,234.44z"/>
		<path class="st2" d="M118.05,240.79c5.24-1.36,10.62-3.28,15.97-4.09c4.64-0.7,9.34-0.79,13.98-1.64
			c13.44-2.46,25.93-7.64,36.98-15.3c-4.21-0.15-8.41-0.18-12.62-0.11c-7.86,1.72-15.73,3.39-23.61,5.01
			c-27.45,5.64-55.01,10.73-82.64,15.45l0,13.75c6.47-1.6,12.94-3.2,19.41-4.8C96.38,246.35,107.22,243.6,118.05,240.79z"/>
		<path class="st5" d="M267.66,194.14c0.98-0.04,1.95-0.08,2.93-0.13c13.39-1.74,26.8-3.38,40.21-4.98v-11.02
			c-10.48,3.93-20.78,8.32-31.33,12.07C275.54,191.48,271.61,192.83,267.66,194.14z"/>
		<path class="st5" d="M287.21,142.58c-19.68,0.3-39.33,0.77-59.02,0.8c-21.53,0.03-43.12-0.14-64.63,0.71
			c-19.75,0.79-39.97,3.88-59.45,7.63l-33.66,19.43c-1.01,0.59-1.94,1.54-2.68,2.63c14.5-3.15,29.11-5.77,43.75-8.15
			c22.27-3.62,44.71-7.09,67.19-9.16c5.31-0.49,6.3,6.82,2.52,9.32c-11.9,7.88-26.09,12.21-39.8,15.7
			c-20.81,5.29-42.06,8.07-63.19,11.56c-1.18,2.29-2.89,4.36-4.89,6.24c11.04-0.27,22.07-0.57,33.11-0.88
			c40.61-1.14,81.39-1.64,122.15-2.85c2.35-0.66,4.71-1.31,7.06-1.98c13.84-3.97,27.57-8.31,41.14-13.13
			c11.32-4.02,22.34-8.79,33.61-12.92c0.13-0.05,0.25-0.09,0.38-0.14v-24.53C302.94,142.47,295.05,142.46,287.21,142.58z"/>
		<path class="st5" d="M161.44,269.99c9.98,0.17,19.98-0.03,29.96-0.35c19.01-0.6,37.85-1.33,56.88-1.2c0.57,0,1.14,0.01,1.71,0.02
			l32.11-18.54C242.33,258.97,201.84,264.3,161.44,269.99z"/>
		<path class="st5" d="M76.83,223.62c26.38-5.95,53.26-11.45,80.32-13.33c8.16-1.27,16.33-2.52,24.5-3.75
			c-1.2,0.03-2.4,0.06-3.6,0.09c-28.09,0.67-56.18,1.36-84.27,2.13c-9.21,0.25-18.44,0.36-27.66,0.58l0,16.17
			c0.53-0.1,1.07-0.2,1.6-0.29C70.75,224.67,73.79,224.15,76.83,223.62z"/>
		<path class="st5" d="M228.54,278.38c-16-0.22-32.05,1.24-48.05,1.55c-11.18,0.21-22.38,0.24-33.54-0.48
			c-8.06-0.52-16.86-1.02-24.42-4.13c-2-0.82-3.38-3.09-3.53-5.22c-17.62,2.64-35.25,5.26-52.88,7.94l0,91.56
			c0,2.77,1.95,3.9,4.35,2.51l162.24-93.67C231.31,278.42,229.93,278.4,228.54,278.38z"/>
		<path class="st5" d="M303.62,234.44c1.35-0.04,2.43,0.41,3.23,1.13c2.21-1.51,3.95-4.64,3.95-7.25v-26.71
			c-11.99,0.79-23.99,1.44-35.99,2c-24.07,3.14-48.12,6.49-72.14,10.01c0.95,1.73,0.92,3.88-0.91,5.53
			c-14.46,13.06-31.88,22-51.09,25.54c-4.75,0.88-9.53,1.15-14.3,1.8c-5.26,0.72-10.52,2.6-15.65,3.93
			c-10.51,2.72-21.03,5.4-31.57,8.02c-7.67,1.91-15.35,3.78-23.03,5.63v3.9c28.55-4.33,57.11-8.59,85.7-12.59
			C202.41,248.3,252.37,236.11,303.62,234.44z"/>
		<path class="st5" d="M176.04,133.82c21.61-0.4,43.23-0.44,64.85-0.45c22.88-0.01,46.63-1.99,69.9-0.78V37.41
			c0-2.77-1.95-3.9-4.35-2.51L127.65,138.13C143.7,135.87,159.72,134.12,176.04,133.82z"/>
		<path class="st5" d="M76.89,183.53c8.12-1.4,16.24-2.77,24.38-4.12c13.54-2.25,27.07-4.78,40.35-8.31
			c-24.78,3.45-49.53,7.51-73.95,12.93c-0.44,0.1-0.88,0.2-1.32,0.3c2.8-0.39,5.61-0.78,8.42-1.14
			C75.54,183.08,76.26,183.23,76.89,183.53z"/>
		<path class="st5" d="M118.05,240.79c5.24-1.36,10.62-3.28,15.97-4.09c4.64-0.7,9.34-0.79,13.98-1.64
			c13.44-2.46,25.93-7.64,36.98-15.3c-4.21-0.15-8.41-0.18-12.62-0.11c-7.86,1.72-15.73,3.39-23.61,5.01
			c-27.45,5.64-55.01,10.73-82.64,15.45l0,13.75c6.47-1.6,12.94-3.2,19.41-4.8C96.38,246.35,107.22,243.6,118.05,240.79z"/>
		<path id="XMLID_1337_" class="st2" d="M69.82,377.06c-2.41,1.06-5.74,1.02-7.79-0.16c-2.25-1.31-4.08-4.6-4.08-7.39v-17.38
			l8.15,4.72v17.38C66.1,376.76,67.71,377.91,69.82,377.06z"/>
		<path id="XMLID_1606_" class="st5" d="M69.82,377.06c-2.41,1.06-5.74,1.02-7.79-0.16c-2.25-1.31-4.08-4.6-4.08-7.39v-17.38
			l8.15,4.72v17.38C66.1,376.76,67.71,377.91,69.82,377.06z"/>
		<path class="st2" d="M235.52,259.02l-16.95,9.79c9.88-0.26,19.76-0.43,29.7-0.36c3.2,0.02,6.41,0.06,9.61,0.09l37.89-21.87
			C275.86,251.67,255.74,255.61,235.52,259.02z"/>
		<path class="st2" d="M228.54,278.38c-9.28-0.13-18.57,0.31-27.87,0.76L66.1,356.85l0.01,17.38c0,2.77,1.95,3.9,4.35,2.51
			l170.07-98.19C236.53,278.49,232.54,278.43,228.54,278.38z"/>
		<path class="st2" d="M310.8,215.54l-36.15,20.87c9.62-0.96,19.27-1.66,28.97-1.97c2.86-0.09,4.54,2.01,4.82,4.31
			c1.39-1.64,2.35-3.86,2.35-5.79V215.54z"/>
		<path class="st4" d="M235.49,259.02l-16.95,9.78c9.89-0.26,19.78-0.43,29.72-0.36c3.2,0.02,6.41,0.06,9.61,0.09l37.89-21.87
			C275.85,251.67,255.72,255.61,235.49,259.02z"/>
		<path class="st4" d="M228.54,278.38c-9.29-0.13-18.59,0.31-27.89,0.76L66.11,356.81l0,17.41c0,2.77,1.95,3.9,4.35,2.51
			l170.07-98.19C236.53,278.49,232.54,278.43,228.54,278.38z"/>
		<path class="st4" d="M310.8,215.54l-36.16,20.88c9.62-0.96,19.28-1.66,28.98-1.97c2.86-0.09,4.54,2.01,4.82,4.31
			c1.39-1.64,2.35-3.86,2.35-5.79V215.54z"/>
		<path class="st2" d="M157.15,210.29c8.16-1.27,16.33-2.52,24.5-3.75c-1.2,0.03-2.4,0.06-3.6,0.09
			c-28.09,0.67-56.18,1.36-84.27,2.13c-6.5,0.18-13,0.29-19.51,0.41l0,14.9c0.85-0.15,1.71-0.3,2.56-0.45
			C103.21,217.66,130.09,212.17,157.15,210.29z"/>
		<path class="st2" d="M287.21,142.58c-19.68,0.3-39.33,0.77-59.02,0.8c-21.53,0.03-43.12-0.14-64.63,0.71
			c-11.97,0.48-24.12,1.8-36.17,3.61l-37.54,21.68c7.21-1.33,14.44-2.57,21.68-3.74c22.27-3.62,44.71-7.09,67.19-9.16
			c5.31-0.49,6.3,6.82,2.52,9.32c-11.9,7.88-26.09,12.21-39.8,15.7c-20.81,5.29-42.06,8.07-63.19,11.56c-1,1.93-2.38,3.7-3.99,5.33
			v0.88c10.73-0.27,21.47-0.55,32.2-0.86c40.61-1.14,81.39-1.64,122.15-2.85c2.35-0.66,4.71-1.31,7.06-1.98
			c13.84-3.97,27.57-8.31,41.14-13.13c8.71-3.09,17.24-6.63,25.84-9.97l0-27.89C297.49,142.48,292.34,142.5,287.21,142.58z"/>
		<path class="st2" d="M76.89,183.53c8.12-1.4,16.24-2.77,24.38-4.12c13.54-2.25,27.07-4.78,40.35-8.31
			c-22.55,3.14-45.07,6.79-67.35,11.51v0.64c0.16-0.02,0.33-0.05,0.49-0.07C75.54,183.08,76.26,183.23,76.89,183.53z"/>
		<path class="st2" d="M267.66,194.14c0.98-0.04,1.95-0.08,2.93-0.13c10.68-1.38,21.37-2.71,32.06-4l0-8.86
			c-7.7,3.03-15.37,6.16-23.18,8.93C275.54,191.48,271.61,192.83,267.66,194.14z"/>
		<path class="st2" d="M161.44,269.99c9.98,0.17,19.98-0.03,29.96-0.35c0.48-0.02,0.97-0.03,1.45-0.05l9.31-5.37
			C188.59,266.2,175.01,268.08,161.44,269.99z"/>
		<path class="st2" d="M176.04,133.82c21.61-0.4,43.23-0.44,64.85-0.45c20.21,0,41.1-1.56,61.75-1.08l0-82.75
			c0-1.66-1.17-2.34-2.61-1.51l-151.62,87.54C157.57,134.63,166.75,133.99,176.04,133.82z"/>
		<path class="st2" d="M118.05,240.79c5.24-1.36,10.62-3.28,15.97-4.09c4.64-0.7,9.34-0.79,13.98-1.64
			c13.44-2.46,25.93-7.64,36.98-15.3c-4.21-0.15-8.41-0.18-12.62-0.11c-7.86,1.72-15.73,3.39-23.61,5.01
			c-24.75,5.09-49.59,9.72-74.49,14.04l0,13.14c3.75-0.93,7.51-1.86,11.26-2.79C96.38,246.35,107.22,243.6,118.05,240.79z"/>
		<path class="st2" d="M146.94,279.44c-8.06-0.52-16.86-1.02-24.42-4.13c-2-0.82-3.38-3.09-3.53-5.22
			c-14.91,2.23-29.82,4.46-44.73,6.71l0,58.24c0,1.66,1.17,2.34,2.61,1.51l97.93-56.54C165.52,280.12,156.21,280.04,146.94,279.44z"
			/>
		<path class="st2" d="M243.46,240.37l56.58-32.66c1.44-0.83,2.61-2.85,2.61-4.52v-1.07c-9.27,0.56-18.55,1.05-27.84,1.48
			c-24.07,3.14-48.12,6.49-72.14,10.01c0.95,1.73,0.92,3.88-0.91,5.53c-14.46,13.06-31.88,22-51.09,25.54
			c-4.75,0.88-9.53,1.15-14.3,1.8c-5.26,0.72-10.52,2.6-15.65,3.93c-10.51,2.72-21.03,5.4-31.57,8.02
			c-4.96,1.23-9.91,2.45-14.87,3.66l0,4.63c25.83-3.91,51.67-7.74,77.55-11.36C182.45,251.1,212.86,244.94,243.46,240.37z"/>
		<path class="st6" d="M267.66,194.14c0.98-0.04,1.95-0.08,2.93-0.13c10.68-1.38,21.37-2.71,32.06-4l0-8.86
			c-7.7,3.03-15.37,6.16-23.18,8.93C275.54,191.48,271.61,192.83,267.66,194.14z"/>
		<path class="st6" d="M287.21,142.58c-19.68,0.3-39.33,0.77-59.02,0.8c-21.53,0.03-43.12-0.14-64.63,0.71
			c-11.97,0.48-24.12,1.8-36.17,3.61l-37.54,21.68c7.21-1.33,14.44-2.57,21.68-3.74c22.27-3.62,44.71-7.09,67.19-9.16
			c5.31-0.49,6.3,6.82,2.52,9.32c-11.9,7.88-26.09,12.21-39.8,15.7c-20.81,5.29-42.06,8.07-63.19,11.56c-1,1.93-2.38,3.7-3.99,5.33
			v0.88c10.73-0.27,21.47-0.55,32.2-0.86c40.61-1.14,81.39-1.64,122.15-2.85c2.35-0.66,4.71-1.31,7.06-1.98
			c13.84-3.97,27.57-8.31,41.14-13.13c8.71-3.09,17.24-6.63,25.84-9.97l0-27.89C297.49,142.48,292.34,142.5,287.21,142.58z"/>
		<path class="st6" d="M161.44,269.99c9.98,0.17,19.98-0.03,29.96-0.35c0.48-0.02,0.97-0.03,1.45-0.05l9.31-5.37
			C188.59,266.2,175.01,268.08,161.44,269.99z"/>
		<path class="st6" d="M157.15,210.29c8.16-1.27,16.33-2.52,24.5-3.75c-1.2,0.03-2.4,0.06-3.6,0.09
			c-28.09,0.67-56.18,1.36-84.27,2.13c-6.5,0.18-13,0.29-19.51,0.41l0,14.9c0.85-0.15,1.71-0.3,2.56-0.45
			C103.21,217.66,130.09,212.17,157.15,210.29z"/>
		<path class="st6" d="M146.94,279.44c-8.06-0.52-16.86-1.02-24.42-4.13c-2-0.82-3.38-3.09-3.53-5.22
			c-14.91,2.23-29.82,4.46-44.73,6.71l0,58.24c0,1.66,1.17,2.34,2.61,1.51l97.93-56.54C165.52,280.12,156.21,280.04,146.94,279.44z"
			/>
		<path class="st6" d="M243.46,240.37l56.58-32.66c1.44-0.83,2.61-2.85,2.61-4.52v-1.07c-9.27,0.56-18.55,1.05-27.84,1.48
			c-24.07,3.14-48.12,6.49-72.14,10.01c0.95,1.73,0.92,3.88-0.91,5.53c-14.46,13.06-31.88,22-51.09,25.54
			c-4.75,0.88-9.53,1.15-14.3,1.8c-5.26,0.72-10.52,2.6-15.65,3.93c-10.51,2.72-21.03,5.4-31.57,8.02
			c-4.96,1.23-9.91,2.45-14.87,3.66l0,4.63c25.83-3.91,51.67-7.74,77.55-11.36C182.45,251.1,212.86,244.94,243.46,240.37z"/>
		<path class="st6" d="M76.89,183.53c8.12-1.4,16.24-2.77,24.38-4.12c13.54-2.25,27.07-4.78,40.35-8.31
			c-22.55,3.14-45.07,6.79-67.35,11.51v0.64c0.16-0.02,0.33-0.05,0.49-0.07C75.54,183.08,76.26,183.23,76.89,183.53z"/>
		<path class="st6" d="M176.04,133.82c21.61-0.4,43.23-0.44,64.85-0.45c20.21,0,41.1-1.56,61.75-1.08l0-82.75
			c0-1.66-1.17-2.34-2.61-1.51l-151.62,87.54C157.57,134.63,166.75,133.99,176.04,133.82z"/>
		<path class="st6" d="M118.05,240.79c5.24-1.36,10.62-3.28,15.97-4.09c4.64-0.7,9.34-0.79,13.98-1.64
			c13.44-2.46,25.93-7.64,36.98-15.3c-4.21-0.15-8.41-0.18-12.62-0.11c-7.86,1.72-15.73,3.39-23.61,5.01
			c-24.75,5.09-49.59,9.72-74.49,14.04l0,13.14c3.75-0.93,7.51-1.86,11.26-2.79C96.38,246.35,107.22,243.6,118.05,240.79z"/>
		<path class="st2" d="M188.45,291.73c-2.25,1.3-4.08,4.46-4.08,7.07c0,2.6,1.83,3.66,4.08,2.35c2.25-1.3,4.08-4.46,4.08-7.07
			C192.53,291.48,190.7,290.43,188.45,291.73z"/>
		<path class="st7" d="M66.1,209.34c-2.72,0.07-5.43,0.14-8.15,0.24l0,17.41c2.72-0.5,5.43-0.99,8.15-1.48V209.34z"/>
		<path class="st7" d="M66.75,174.01l-7.51-4.33c-0.78,1.37-1.28,2.91-1.28,4.3l0,2.02c2.03-0.47,4.06-0.94,6.09-1.39
			C64.94,174.4,65.85,174.21,66.75,174.01z"/>
		<path class="st7" d="M66.1,264.08c-2.72,0.66-5.43,1.31-8.15,1.96v3.17c2.72-0.41,5.43-0.83,8.15-1.24V264.08z"/>
		<path class="st7" d="M66.1,240.11c-2.72,0.46-5.43,0.92-8.15,1.38l0,14.37c2.72-0.67,5.43-1.33,8.15-2V240.11z"/>
		<path class="st7" d="M64.49,278.27c-2.18,0.33-4.35,0.66-6.53,1l0,72.86l8.15,4.72v-78.82C65.56,278.11,65.02,278.19,64.49,278.27
			z"/>
		<path class="st4" d="M77.94,161.66c-5.46,3.86-11.06,7.1-17.64,6.53c-0.39,0.46-0.76,0.95-1.07,1.48l7.51,4.34
			c0.34-0.08,0.69-0.15,1.03-0.23c0.75-1.1,1.67-2.05,2.68-2.63l33.66-19.44c-1.08,0.21-2.15,0.42-3.23,0.63
			C92.38,154.02,85.01,156.67,77.94,161.66z"/>
		<path class="st4" d="M113.03,140.31c4.88-0.76,9.75-1.49,14.62-2.18L306.45,34.9c2.19-1.25,4-0.44,4.31,1.8
			c-0.28-2.6-1.97-5.47-4.03-6.65c-2.26-1.31-6.02-1.23-8.43,0.15L105.54,141.48C108.03,141.08,110.53,140.7,113.03,140.31z"/>
	</g>
</g>
<g id="Window_1_">
	<g id="Window">
		<g id="Window_2_">
			<g id="Window_3_">
				<g>
					<path class="st2" d="M141.61,171.1c-5.4,0.75-10.8,1.54-16.2,2.36l-3.98,2.3C128.21,174.4,134.94,172.87,141.61,171.1z"/>
				</g>
				<g>
					<path class="st2" d="M287.21,142.58c-19.68,0.3-39.33,0.77-59.02,0.8c-17.06,0.02-34.16-0.07-51.22,0.31l-28.18,16.27
						c9.96-1.36,19.95-2.57,29.94-3.49c5.31-0.49,6.3,6.82,2.52,9.32c-11.9,7.88-26.09,12.21-39.8,15.7
						c-14.56,3.7-29.32,6.17-44.12,8.51c-1.05,1.16-1.79,2.8-1.79,4.22l0,4.47c3.64-0.1,7.29-0.19,10.93-0.29
						c40.61-1.14,81.39-1.64,122.15-2.85c2.35-0.66,4.71-1.31,7.06-1.98c13.84-3.97,27.57-8.31,41.14-13.13
						c11.32-4.02,22.34-8.79,33.61-12.92c6.01-2.21,12.01-4.48,17.79-7.22v-15.88C314.68,142.54,300.88,142.37,287.21,142.58z"/>
				</g>
				<g>
					<path class="st2" d="M279.47,190.09c-3.92,1.39-7.86,2.74-11.81,4.06c0.98-0.04,1.95-0.08,2.93-0.13
						c19.19-2.49,38.4-4.8,57.62-7.03v-15.74c-4.98,2.15-10.07,4.05-15.13,5.91C301.81,181.3,290.79,186.06,279.47,190.09z"/>
				</g>
				<g>
					<path class="st2" d="M161.44,269.99c9.98,0.17,19.98-0.03,29.96-0.35c18.46-0.58,36.75-1.28,55.21-1.2l29.89-17.27
						C238.53,259.47,199.94,264.57,161.44,269.99z"/>
				</g>
				<g>
					<path class="st2" d="M303.62,234.44c0.55-0.02,1.04,0.07,1.49,0.19l20.04-11.58c1.68-0.97,3.05-3.33,3.05-5.27v-17.43
						c-17.78,1.38-35.59,2.43-53.4,3.25c-24.07,3.14-48.12,6.49-72.14,10.01c0.95,1.73,0.92,3.88-0.91,5.53
						c-14.46,13.06-31.88,22-51.09,25.54c-4.75,0.88-9.53,1.15-14.3,1.8c-5.26,0.72-10.52,2.6-15.65,3.93
						c-8.38,2.17-16.77,4.3-25.17,6.41v6.71c18.75-2.8,37.5-5.54,56.27-8.17C202.41,248.3,252.37,236.11,303.62,234.44z"/>
				</g>
				<g>
					<path class="st2" d="M240.9,133.37c28.62-0.01,58.61-3.11,87.32,0.82V64.33c0-1-0.36-1.7-0.94-2c-0.55-0.29-3.21-1.8-3.78-2.14
						c-0.57-0.34-1.34-0.33-2.22,0.18l-126.76,73.2C209.97,133.4,225.44,133.37,240.9,133.37z"/>
				</g>
				<g>
					<path class="st2" d="M181.65,206.54c-1.2,0.03-2.4,0.06-3.6,0.09c-27.51,0.65-55.01,1.33-82.51,2.09l0,10.82
						c20.34-4.25,40.92-7.81,61.61-9.24C165.31,209.02,173.48,207.77,181.65,206.54z"/>
				</g>
				<g>
					<path class="st2" d="M228.54,278.38c-16-0.22-32.05,1.24-48.05,1.55c-11.18,0.21-22.38,0.24-33.54-0.48
						c-8.06-0.52-16.86-1.02-24.42-4.13c-2-0.82-3.38-3.09-3.53-5.22c-7.82,1.17-15.63,2.34-23.45,3.51l0,73.35
						c0,1.18,0.51,2.23,1.28,2.65c0.5,0.27,3.11,1.79,3.89,2.21c0.5,0.27,1.11,0.28,1.77-0.1l126.9-73.31
						C229.1,278.39,228.82,278.38,228.54,278.38z"/>
				</g>
				<g>
					<path class="st2" d="M134.02,236.7c4.64-0.7,9.34-0.79,13.98-1.64c13.44-2.46,25.93-7.64,36.98-15.3
						c-4.21-0.15-8.41-0.18-12.62-0.11c-7.86,1.72-15.73,3.39-23.61,5.01c-17.69,3.64-35.44,7.03-53.21,10.26v11.62
						c7.51-1.89,15.01-3.8,22.51-5.74C123.29,239.44,128.67,237.51,134.02,236.7z"/>
				</g>
				<g id="XMLID_1917_">
					<g>
						<path class="st8" d="M99.93,196.43c0-1.75,1.28-3.97,2.8-4.84l4.71-2.72c9.44-1.57,21.83-3.77,34.12-6.9
							c13.61-3.46,27.87-7.76,39.96-15.76c2.34-1.55,2.89-4.59,2.23-6.79c-0.65-2.17-2.35-3.46-4.53-3.46
							c-0.18,0-0.36,0.01-0.54,0.03c-5.46,0.5-11.22,1.12-17.54,1.89l23.94-13.82c10.93-0.16,22.04-0.16,32.78-0.16
							c3.45,0,6.89,0,10.33,0c14.1-0.02,28.42-0.27,42.27-0.52c5.58-0.1,11.17-0.2,16.75-0.28c2.77-0.04,5.55-0.07,8.33-0.07
							c12.7,0,22.94,0.59,32.17,1.85v15.12c-5.9,2.77-12.1,5.1-17.46,7.06c-5.18,1.9-10.38,3.96-15.42,5.96
							c-5.93,2.35-12.07,4.79-18.19,6.96c-12.89,4.58-26.72,8.99-41.11,13.12c-1.92,0.55-3.85,1.09-5.78,1.63l-1.21,0.34
							c-21.19,0.62-42.73,1.07-63.56,1.49c-19.2,0.39-39.05,0.8-58.53,1.35l-6.52,0.17V196.43z"/>
						<path class="st1" d="M295.55,143.51c12.48,0,22.57,0.57,31.67,1.79v14.37c-5.79,2.7-11.87,4.98-17.14,6.91
							c-5.18,1.9-10.39,3.97-15.43,5.97c-5.93,2.35-12.06,4.78-18.17,6.96c-12.88,4.58-26.7,8.99-41.08,13.11
							c-1.96,0.56-3.93,1.11-5.9,1.66l-1.03,0.29c-21.17,0.62-42.68,1.06-63.5,1.49c-19.2,0.39-39.05,0.8-58.53,1.35
							c-1.26,0.04-2.53,0.07-3.79,0.1c-0.74,0.02-1.47,0.04-2.21,0.06v-1.13c0-1.59,1.17-3.61,2.55-4.41l4.63-2.68
							c9.43-1.57,21.8-3.77,34.08-6.89c13.65-3.47,27.96-7.79,40.11-15.83c2.54-1.68,3.15-4.97,2.43-7.35
							c-0.72-2.39-2.59-3.82-5.01-3.82c-0.19,0-0.39,0.01-0.59,0.03c-4.76,0.44-9.75,0.97-15.14,1.6l21.72-12.54
							c10.87-0.15,21.92-0.15,32.6-0.15c3.46,0,6.92,0,10.38-0.01c14.11-0.02,28.44-0.27,42.3-0.52c5.57-0.1,11.15-0.2,16.73-0.28
							C290.27,143.53,293,143.51,295.55,143.51 M295.55,142.51c-2.78,0-5.56,0.03-8.34,0.07c-19.68,0.3-39.33,0.77-59.02,0.8
							c-14.4,0.02-28.84-0.04-43.26,0.16l-26.18,15.12c6.65-0.83,13.31-1.57,19.97-2.19c0.17-0.02,0.34-0.02,0.5-0.02
							c4.87,0,5.68,6.92,2.02,9.34c-11.9,7.88-26.09,12.21-39.8,15.7c-11.29,2.87-22.71,5-34.17,6.9l-4.79,2.77
							c-1.68,0.97-3.05,3.33-3.05,5.28v2.16c2.34-0.06,4.69-0.12,7.03-0.19c40.61-1.14,81.39-1.64,122.15-2.85
							c2.35-0.66,4.71-1.31,7.06-1.98c13.84-3.97,27.57-8.31,41.14-13.13c11.32-4.02,22.34-8.79,33.61-12.92
							c6.01-2.21,12.01-4.48,17.79-7.22v-15.88C317.43,142.92,306.47,142.51,295.55,142.51L295.55,142.51z"/>
					</g>
					<g>
						<path class="st8" d="M271.43,193.4c2.92-0.99,5.63-1.93,8.21-2.85c6.13-2.18,12.28-4.62,18.22-6.97
							c5.03-2,10.23-4.06,15.4-5.95c4.39-1.61,9.47-3.5,14.46-5.62v14.53C306.27,189.03,288.34,191.22,271.43,193.4z"/>
						<path class="st1" d="M327.21,172.76v13.33c-19.22,2.23-35.6,4.22-50.97,6.19c1.22-0.42,2.4-0.84,3.56-1.25
							c6.14-2.18,12.28-4.62,18.23-6.98c5.03-2,10.23-4.06,15.39-5.95C317.62,176.56,322.43,174.77,327.21,172.76 M328.21,171.25
							c-4.98,2.15-10.07,4.05-15.13,5.91c-11.27,4.13-22.29,8.9-33.61,12.92c-3.92,1.39-7.86,2.74-11.81,4.06
							c0.98-0.04,1.95-0.08,2.93-0.13c19.19-2.49,38.4-4.8,57.62-7.03V171.25L328.21,171.25z"/>
					</g>
					<g>
						<path class="st8" d="M168.17,269.55l4.16-0.58c33.3-4.66,67.71-9.48,101.16-16.63l-27.01,15.61c-0.89,0-1.78-0.01-2.66-0.01
							c-15.08,0-30.34,0.5-45.11,0.97l-7.33,0.24c-8.8,0.28-15.93,0.41-22.44,0.41C168.94,269.55,168.42,269.55,168.17,269.55z"/>
						<path class="st1" d="M270.51,253.47l-24.17,13.97c-0.84,0-1.69,0-2.53,0c-15.09,0-30.37,0.5-45.14,0.97
							c-2.43,0.08-4.87,0.16-7.3,0.23c-5.88,0.19-11.02,0.3-15.72,0.36C206.92,264.63,239.1,260.05,270.51,253.47 M276.5,251.17
							c-37.97,8.3-76.56,13.4-115.06,18.82c2.5,0.04,5,0.06,7.5,0.06c7.49,0,14.98-0.17,22.46-0.41c17.53-0.55,34.9-1.21,52.42-1.21
							c0.93,0,1.86,0,2.8,0.01L276.5,251.17L276.5,251.17z"/>
					</g>
					<g>
						<path class="st8" d="M141.61,171.1c-1.95,0.27-3.9,0.55-5.84,0.83l-1.91,1.11C136.45,172.42,139.04,171.78,141.61,171.1z"/>
						<path class="st1" d="M141.61,171.1c-1.95,0.27-3.9,0.55-5.84,0.83l-1.91,1.11C136.45,172.42,139.04,171.78,141.61,171.1
							L141.61,171.1z"/>
					</g>
					<g>
						<path class="st8" d="M101.48,351.49c-0.85,0-1.54-1.05-1.54-2.34v-75.71l18.62-2.79c0.35,2.26,1.85,4.32,3.78,5.11
							c7.44,3.07,16.23,3.63,23.97,4.13l0.6,0.04c6.38,0.41,13.31,0.61,21.19,0.61c3.72,0,7.66-0.04,12.39-0.13
							c6.53-0.12,13.18-0.45,19.61-0.76c8.25-0.4,16.78-0.81,25.15-0.81c0.77,0,1.54,0,2.31,0.01l-125.33,72.4
							C101.97,351.41,101.72,351.49,101.48,351.49L101.48,351.49z"/>
						<path class="st1" d="M118.15,271.23c0.51,2.23,2.05,4.21,3.99,5.01c7.52,3.1,16.35,3.67,24.13,4.17l0.6,0.04
							c6.39,0.41,13.33,0.61,21.22,0.61c3.72,0,7.67-0.04,12.4-0.13c6.54-0.12,13.19-0.45,19.62-0.76
							c8.24-0.4,16.76-0.81,25.12-0.81c0.15,0,0.31,0,0.46,0l-123.73,71.47c-0.19,0.11-0.36,0.16-0.51,0.16
							c-0.56,0-1.04-0.86-1.04-1.84v-75.27l3.21-0.48C108.48,272.67,113.32,271.95,118.15,271.23 M118.99,270.09
							c-6.52,0.98-13.04,1.95-19.56,2.93v76.14c0,1.54,0.85,2.84,2.04,2.84c0.32,0,0.65-0.09,1.01-0.29l126.9-73.31
							c-0.28,0-0.56-0.01-0.84-0.01c-1.1-0.01-2.2-0.02-3.29-0.02c-14.91,0-29.86,1.28-44.76,1.57c-4.12,0.08-8.25,0.13-12.38,0.13
							c-7.06,0-14.12-0.16-21.16-0.61c-8.06-0.52-16.86-1.02-24.42-4.13C120.53,274.49,119.15,272.22,118.99,270.09L118.99,270.09z"
							/>
					</g>
					<g>
						<path class="st8" d="M99.93,209.09c21.53-0.59,44.47-1.17,73.81-1.87c-5.56,0.85-11.12,1.7-16.68,2.57
							c-16.75,1.16-34.94,3.81-57.14,8.32V209.09z"/>
						<path class="st1" d="M165.95,207.91c-2.94,0.45-5.92,0.91-8.92,1.38c-16.65,1.16-34.67,3.77-56.6,8.21v-7.92
							C119.93,209.05,140.55,208.53,165.95,207.91 M181.65,206.54c-1.2,0.03-2.4,0.06-3.6,0.09c-26.21,0.62-52.41,1.27-78.62,1.98
							v10.12c19.07-3.89,38.35-7.09,57.71-8.44C165.31,209.02,173.48,207.77,181.65,206.54L181.65,206.54z"/>
					</g>
					<g>
						<path class="st8" d="M99.93,256.25c8.04-2.03,14.69-3.73,20.9-5.33c1.58-0.41,3.2-0.88,4.77-1.33
							c3.55-1.03,7.22-2.09,10.83-2.59c1.84-0.25,3.72-0.45,5.54-0.65c2.88-0.31,5.86-0.62,8.78-1.16
							c18.85-3.48,36.6-12.35,51.34-25.66c1.63-1.47,2.11-3.54,1.32-5.51c24.32-3.56,48.36-6.9,71.47-9.92
							c19.02-0.87,36.32-1.92,52.84-3.2v16.89c0,1.75-1.28,3.97-2.8,4.84l-19.87,11.48c-0.44-0.11-0.86-0.16-1.28-0.16l-0.16,0
							c-34.53,1.12-69.03,7.12-102.39,12.91c-16.2,2.81-32.94,5.72-49.48,8.04c-15.7,2.2-32.66,4.65-51.81,7.5V256.25z"/>
						<path class="st1" d="M327.21,201.44v16.35c0,1.59-1.17,3.61-2.55,4.41l-19.7,11.38c-0.41-0.09-0.8-0.13-1.2-0.13
							c-0.06,0-0.12,0-0.18,0c-34.57,1.12-69.08,7.12-102.46,12.92c-16.19,2.81-32.93,5.72-49.46,8.03
							c-15.54,2.17-32.31,4.6-51.24,7.41v-5.17c7.84-1.98,14.38-3.65,20.52-5.24c1.59-0.41,3.22-0.88,4.79-1.34
							c3.53-1.02,7.18-2.08,10.75-2.57c1.83-0.25,3.71-0.45,5.52-0.64c2.89-0.31,5.88-0.62,8.82-1.17
							c18.94-3.49,36.77-12.41,51.58-25.79c1.63-1.48,2.22-3.49,1.65-5.47c24.1-3.53,47.92-6.83,70.82-9.82
							C293.74,203.74,310.87,202.7,327.21,201.44 M328.21,200.36c-17.78,1.38-35.59,2.43-53.4,3.25
							c-24.07,3.14-48.12,6.49-72.14,10.01c0.95,1.73,0.92,3.88-0.91,5.53c-14.46,13.06-31.88,22-51.09,25.54
							c-4.75,0.88-9.53,1.15-14.3,1.8c-5.26,0.72-10.52,2.6-15.65,3.93c-7.08,1.84-14.18,3.64-21.27,5.43v7.1
							c17.45-2.6,34.91-5.14,52.38-7.58c50.6-7.08,100.56-19.27,151.81-20.94c0.05,0,0.1,0,0.15,0c0.49,0,0.93,0.08,1.35,0.2
							l20.04-11.58c1.68-0.97,3.05-3.33,3.05-5.27V200.36L328.21,200.36z"/>
					</g>
					<g>
						<path class="st8" d="M327.71,133.62c-9.79-1.31-20.39-1.92-33.31-1.92c-9.05,0-18.24,0.3-27.13,0.59
							c-8.7,0.28-17.69,0.58-26.37,0.58c-10.06,0-23.19,0.02-36.67,0.11L325.42,63c0.4-0.23,0.78-0.35,1.11-0.35
							c0.74,0,1.19,0.63,1.19,1.67V133.62z"/>
						<path class="st1" d="M326.53,63.15c0.6,0,0.69,0.74,0.69,1.17v68.72c-9.65-1.26-20.12-1.85-32.81-1.85
							c-9.05,0-18.25,0.3-27.14,0.59c-8.69,0.28-17.68,0.58-26.36,0.58c-9.59,0-21.97,0.02-34.78,0.1l119.55-69.03
							C326.07,63.2,326.36,63.15,326.53,63.15 M326.53,62.15c-0.41,0-0.87,0.13-1.36,0.42l-122.83,70.93
							c12.85-0.1,25.71-0.12,38.56-0.12c17.52,0,35.56-1.17,53.5-1.17c11.36,0,22.68,0.47,33.81,1.99V64.33
							C328.21,62.95,327.53,62.15,326.53,62.15L326.53,62.15z"/>
					</g>
					<g>
						<path class="st8" d="M99.93,234.62c17.65-3.24,33.66-6.34,48.92-9.47c8.08-1.66,16.03-3.34,23.62-5.01
							c1.29-0.01,2.68-0.02,4.07-0.02c2.33,0,4.64,0.03,6.9,0.1c-10.71,7.17-22.66,11.99-35.52,14.35
							c-2.55,0.47-5.16,0.71-7.69,0.94c-2.06,0.19-4.19,0.38-6.27,0.7c-3.66,0.55-7.35,1.63-10.92,2.67c-1.68,0.49-3.42,1-5.1,1.43
							c-5.99,1.55-11.99,3.08-17.99,4.6V234.62z"/>
						<path class="st1" d="M176.53,220.61c1.78,0,3.55,0.02,5.29,0.06c-10.31,6.65-21.73,11.15-34,13.4
							c-2.52,0.46-5.13,0.7-7.65,0.93c-2.06,0.19-4.2,0.39-6.3,0.7c-3.69,0.56-7.4,1.64-10.99,2.69c-1.67,0.49-3.41,0.99-5.08,1.43
							c-5.34,1.38-11.03,2.84-17.36,4.44v-9.24c17.48-3.21,33.36-6.29,48.52-9.4c8.08-1.66,15.99-3.34,23.52-4.99
							C173.83,220.63,175.18,220.61,176.53,220.61 M176.53,219.61c-1.39,0-2.78,0.01-4.17,0.03c-7.86,1.72-15.73,3.39-23.61,5.01
							c-16.4,3.37-32.85,6.53-49.32,9.55v11.36c6.21-1.57,12.41-3.15,18.61-4.76c5.24-1.36,10.62-3.28,15.97-4.09
							c4.64-0.7,9.34-0.79,13.98-1.64c13.44-2.46,25.93-7.64,36.98-15.3C182.17,219.66,179.35,219.61,176.53,219.61L176.53,219.61z"
							/>
					</g>
					<path class="st0" d="M99.44,234.2c-1.3,0.24-2.6,0.48-3.9,0.71v11.62c1.3-0.33,2.6-0.65,3.9-0.98V234.2z"/>
					<path class="st0" d="M99.44,208.61c-1.3,0.04-2.6,0.07-3.9,0.1v10.82c1.3-0.27,2.6-0.54,3.9-0.8V208.61z"/>
					<path class="st0" d="M99.44,255.86c-1.3,0.33-2.6,0.65-3.9,0.98v6.71c1.3-0.19,2.6-0.39,3.9-0.58V255.86z"/>
					<path class="st0" d="M99.44,349.15v-76.13c-1.3,0.19-2.6,0.39-3.9,0.58v73.35c0,1.18,0.51,2.23,1.28,2.64
						c0.33,0.18,2.7,1.53,3.74,2.12C99.86,351.21,99.49,350.35,99.44,349.15z"/>
				</g>
				<g id="XMLID_1913_">
					<path class="st2" d="M141.61,171.1c-1.95,0.27-3.9,0.55-5.84,0.83l-1.91,1.11C136.45,172.42,139.04,171.78,141.61,171.1z"/>
					<path class="st2" d="M107.27,188.39l-4.79,2.77c-1.68,0.97-3.05,3.33-3.05,5.28l0,2.16c2.34-0.06,4.69-0.12,7.03-0.19
						c2.38-0.07,4.76-0.13,7.14-0.19l29.89-17.26c-0.69,0.18-1.37,0.36-2.05,0.53C130.15,184.35,118.73,186.48,107.27,188.39z"/>
					<path class="st2" d="M225.89,133.38L328.21,74.3v-10c-0.01-1.92-1.37-2.7-3.04-1.74l-122.83,70.93
						C210.19,133.44,218.04,133.4,225.89,133.38z"/>
					<path class="st2" d="M158.76,158.66c6.65-0.83,13.31-1.57,19.97-2.19c1.87-0.17,3.2,0.63,3.97,1.85l25.87-14.94
						c-7.88,0.01-15.75,0.04-23.63,0.15L158.76,158.66z"/>
					<g class="st9">
						<path class="st10" d="M97.33,190c-0.32,0.35-0.61,0.75-0.86,1.17l3.87,2.24c0.55-0.95,1.31-1.77,2.15-2.26l4.79-2.77
							C103.96,188.94,100.65,189.47,97.33,190z"/>
					</g>
					<g class="st9">
						<path class="st10" d="M121.43,175.76c4.16-0.84,8.3-1.74,12.42-2.72l1.91-1.1c-3.45,0.5-6.91,1-10.36,1.53L121.43,175.76z"/>
					</g>
					<g class="st9">
						<path class="st10" d="M148.79,159.96c3.32-0.45,6.64-0.89,9.97-1.3l26.18-15.12c-2.66,0.04-5.31,0.09-7.97,0.15L148.79,159.96
							z"/>
					</g>
					<g class="st9">
						<path class="st10" d="M202.34,133.49l122.83-70.93c0.79-0.45,1.5-0.53,2.04-0.27c-0.64-0.34-3.17-1.78-3.72-2.12
							c-0.57-0.34-1.34-0.33-2.21,0.18l-126.76,73.2C197.12,133.53,199.73,133.51,202.34,133.49z"/>
					</g>
					<path class="st11" d="M95.54,194.22l0,4.47c1.3-0.04,2.6-0.07,3.9-0.1v-2.15c0-0.99,0.34-2.07,0.91-3.03l-3.88-2.23
						C95.9,192.14,95.54,193.23,95.54,194.22z"/>
				</g>
			</g>
		</g>
		<g id="XMLID_985_">
			<g id="XMLID_639_">
				<path class="st2" d="M291.82,191.33l0-5.82c0-0.03-0.01-0.06-0.01-0.08c-4.1,1.61-8.2,3.18-12.35,4.66
					c-3.92,1.39-7.86,2.74-11.81,4.06c0.98-0.04,1.95-0.08,2.93-0.13C277.66,193.1,284.74,192.21,291.82,191.33z"/>
				<path class="st2" d="M274.27,236.46l15.31-8.84c1.23-0.71,2.23-2.44,2.23-3.86l0.01-21.01c-5.67,0.31-11.34,0.59-17.01,0.85
					c-15.47,2.02-30.93,4.13-46.39,6.32l-79.44,45.86c0.94-0.13,1.89-0.27,2.83-0.4C192.71,249.66,233.19,240.6,274.27,236.46z"/>
				<path class="st2" d="M191.39,269.64c8.97-0.28,17.9-0.59,26.83-0.83l16.83-9.72c-24.45,4.11-49.06,7.43-73.62,10.89
					C171.42,270.16,181.42,269.96,191.39,269.64z"/>
				<path class="st2" d="M180.49,279.92c-11.18,0.21-22.38,0.24-33.54-0.48c-0.43-0.03-0.86-0.06-1.29-0.08v19.16
					c0,1.42,1,3.14,2.23,3.85l3.9,2.24c1.23,0.71,3.22,0.71,4.45,0l44.09-25.45C193.7,279.48,187.09,279.8,180.49,279.92z"/>
				<path class="st12" d="M267.66,194.14c0.98-0.04,1.95-0.08,2.93-0.13c0.88-0.11,1.76-0.22,2.64-0.33l6.2-3.58
					C275.52,191.49,271.59,192.83,267.66,194.14z"/>
				<path class="st12" d="M171.53,252.4l78.84-45.52c-7.32,1-14.63,2.01-21.94,3.04l-79.45,45.87c0.94-0.13,1.89-0.27,2.83-0.4
					C158.39,254.46,164.96,253.46,171.53,252.4z"/>
				<path class="st6" d="M154,303.33V279.8c-2.35-0.09-4.7-0.2-7.05-0.35c-0.43-0.03-0.86-0.06-1.29-0.08v19.15
					c0,1.42,1,3.15,2.23,3.86l3.9,2.24c1.11,0.64,2.84,0.7,4.07,0.17C154.8,305.19,154,304.6,154,303.33z"/>
				<path class="st2" d="M289.58,227.62c1.23-0.71,2.23-2.44,2.23-3.86l0.01-21.01c-5.67,0.31-11.34,0.59-17.01,0.85
					c-8.15,1.06-16.29,2.16-24.43,3.27l-78.84,45.52c34.22-5.52,68.27-12.46,102.74-15.94L289.58,227.62z"/>
				<path class="st2" d="M291.83,185.51c0-0.03-0.01-0.05-0.01-0.08c-4.1,1.61-8.2,3.18-12.35,4.66c-0.01,0-0.02,0.01-0.03,0.01
					l-6.21,3.58c6.2-0.8,12.39-1.58,18.59-2.34L291.83,185.51z"/>
				<path class="st2" d="M191.39,269.64c8.97-0.28,17.9-0.59,26.83-0.83l16.83-9.72c-24.45,4.11-49.06,7.43-73.62,10.89
					C171.42,270.16,181.42,269.96,191.39,269.64z"/>
				<path class="st2" d="M180.49,279.92c-8.82,0.17-17.66,0.21-26.49-0.12v23.53c0,1.42,1,1.99,2.23,1.29l44.09-25.45
					C193.7,279.48,187.09,279.8,180.49,279.92z"/>
				<path class="st13" d="M171.53,252.4l78.84-45.52c-7.32,1-14.63,2.01-21.94,3.04l-79.45,45.87c0.94-0.13,1.89-0.27,2.83-0.4
					C158.39,254.46,164.96,253.46,171.53,252.4z"/>
				<path class="st14" d="M254.23,206.35c-1.28,0.17-2.57,0.35-3.85,0.53l-78.84,45.52c27.58-4.45,55.04-9.82,82.69-13.55V206.35z"
					/>
				<path class="st14" d="M180.49,279.92c-8.82,0.17-17.66,0.21-26.49-0.12v23.53c0,1.42,1,1.99,2.23,1.29l44.09-25.45
					C193.7,279.48,187.09,279.8,180.49,279.92z"/>
				<path class="st14" d="M191.39,269.64c8.97-0.28,17.9-0.59,26.83-0.83l16.83-9.72c-24.45,4.11-49.06,7.43-73.62,10.89
					C171.42,270.16,181.42,269.96,191.39,269.64z"/>
			</g>
			<g id="XMLID_640_">
				<path class="st2" d="M212.37,245.43l17.02-9.83c2.1-1.21,3.8-4.03,3.8-6.3s-1.7-3.13-3.8-1.92l-37.37,21.58
					C198.81,247.78,205.59,246.6,212.37,245.43z"/>
			</g>
			<g id="XMLID_646_">
				<path class="st8" d="M189.19,266.24l-0.62,0.36c-0.06,0.03-0.11,0.1-0.15,0.2c-0.04,0.1-0.06,0.2-0.06,0.3v2.63
					c0.35-0.01,0.7-0.02,1.05-0.03v-3.21c0-0.1-0.02-0.18-0.06-0.23C189.3,266.21,189.25,266.2,189.19,266.24z"/>
				<path class="st8" d="M191.88,269.63c-0.03-0.02-0.06-0.02-0.08-0.04c-0.03-0.05-0.04-0.13-0.04-0.23c0-0.21,0.06-0.4,0.18-0.55
					c0.12-0.15,0.26-0.27,0.41-0.36c0.16-0.09,0.27-0.13,0.35-0.13c0.08,0.01,0.14,0.03,0.19,0.06c0.05,0.04,0.09,0.07,0.13,0.1
					c0.04,0.03,0.1,0.02,0.18-0.03l0.6-0.35c0.06-0.03,0.11-0.1,0.15-0.2c0.04-0.1,0.06-0.2,0.06-0.3
					c-0.01-0.22-0.06-0.41-0.13-0.58c-0.08-0.17-0.19-0.3-0.33-0.39c-0.14-0.09-0.31-0.12-0.51-0.11c-0.2,0.01-0.43,0.09-0.68,0.24
					c-0.26,0.15-0.48,0.34-0.68,0.59c-0.2,0.24-0.37,0.51-0.5,0.8c-0.14,0.29-0.24,0.59-0.32,0.9c-0.05,0.21-0.06,0.41-0.08,0.61
					c0.2-0.01,0.41-0.01,0.61-0.02C191.56,269.64,191.72,269.63,191.88,269.63z"/>
				<path class="st8" d="M195.67,265.95c-0.17,0.43-0.29,0.91-0.38,1.42c-0.09,0.51-0.13,1.02-0.13,1.54c0,0.22,0.01,0.42,0.03,0.62
					c0.34-0.01,0.69-0.02,1.03-0.03c-0.03-0.11-0.04-0.24-0.04-0.39l2.61-1.51c0.06-0.03,0.11-0.1,0.15-0.2
					c0.04-0.1,0.06-0.2,0.06-0.3v-0.62c0-0.47-0.05-0.9-0.14-1.28c-0.04-0.17-0.09-0.33-0.15-0.47c-0.87,0.13-1.74,0.25-2.61,0.38
					C195.93,265.36,195.79,265.64,195.67,265.95z M196.24,267.03c0.04-0.18,0.09-0.35,0.17-0.51c0.07-0.17,0.16-0.32,0.27-0.46
					c0.11-0.14,0.24-0.25,0.39-0.34c0.17-0.1,0.3-0.13,0.41-0.12c0.11,0.02,0.19,0.07,0.26,0.16c0.07,0.09,0.11,0.2,0.14,0.34
					c0.03,0.14,0.05,0.27,0.06,0.4l-1.77,1.02C196.18,267.37,196.2,267.21,196.24,267.03z"/>
				<path class="st8" d="M201.18,268.92c0.04-0.1,0.06-0.2,0.06-0.3v-3.61c0-0.25,0.02-0.46,0.05-0.67
					c-0.35,0.05-0.71,0.1-1.06,0.16v4.71c0,0.07,0.02,0.1,0.04,0.15c0.13,0,0.25-0.01,0.38-0.01l0.39-0.22
					C201.09,269.09,201.14,269.02,201.18,268.92z"/>
				<path class="st8" d="M206.17,266.16l3.42-1.98c0.06-0.03,0.11-0.1,0.15-0.2c0.04-0.1,0.06-0.2,0.06-0.3v-0.6
					c-0.6,0.09-1.19,0.18-1.79,0.27l-1,0.57v-0.42c-0.35,0.05-0.7,0.1-1.06,0.16v2.24c0,0.1,0.02,0.18,0.06,0.23
					C206.06,266.18,206.11,266.19,206.17,266.16z"/>
			</g>
			<g id="XMLID_641_">
				<path class="st13" d="M270.67,204.16c-1.72,2.14-2.9,5.19-2.9,7.93c0,2.17,0.74,3.68,1.9,4.3l-1.51,13.62l9.71-5.61l-1.51-11.89
					c1.16-1.96,1.9-4.32,1.9-6.49c0-1-0.16-1.86-0.45-2.56c-1.01,0.05-2.01,0.1-3.02,0.15
					C273.43,203.79,272.05,203.97,270.67,204.16z"/>
				<polygon class="st14" points="269.33,219.47 268.16,230.01 277.87,224.4 				"/>
				<path class="st14" d="M270.68,204.15c-0.88,1.1-1.63,2.43-2.14,3.84l7.83,4.52l0,0c1.16-1.96,1.9-4.32,1.9-6.49
					c0-1-0.16-1.86-0.45-2.56c-1.01,0.05-2.01,0.1-3.02,0.15C273.43,203.79,272.05,203.97,270.68,204.15z"/>
			</g>
		</g>
		<g id="XMLID_979_">
			<g id="XMLID_1560_">
				<g id="XMLID_1570_">
					<path class="st2" d="M228.9,195.48c5.26-6.76,8.77-15.48,8.77-23.12c0-5.85-2.05-9.96-5.37-11.88l-6.51-3.77
						c-3.32-1.92-7.91-1.65-12.99,1.28c-10.14,5.85-18.36,20.09-18.36,31.8c0,2.56,0.41,4.76,1.13,6.62
						c11.01-0.25,22.02-0.52,33.03-0.84C228.71,195.53,228.81,195.5,228.9,195.48z"/>
					<path class="st2" d="M228.91,195.47c5.26-6.76,8.78-15.47,8.77-23.12c-0.01-11.71-8.23-16.45-18.36-10.6
						c-10.14,5.86-18.36,20.09-18.36,31.8c0,0.95,0.06,1.86,0.17,2.72c9.16-0.21,18.33-0.45,27.49-0.72
						C228.71,195.53,228.81,195.5,228.91,195.47z"/>
					<path class="st2" d="M224.41,195.67c1.9-1.92,3.62-4.17,5.05-6.6v-1.34c0-2.81-1.04-5.02-2.88-6.08
						c-1.8-1.04-4.1-0.87-6.46,0.5l-2.67,1.53c-4.09,2.36-7.39,7.54-8.11,12.39C214.36,195.95,219.38,195.81,224.41,195.67z"/>
					<path class="st15" d="M197.13,177.21l6.51,3.77c3.22-7.96,9.04-15.39,15.68-19.23c5.07-2.93,9.66-3.2,12.98-1.28l-6.51-3.77
						c-3.32-1.92-7.91-1.65-12.98,1.28C206.17,161.82,200.36,169.25,197.13,177.21z"/>
					<path class="st16" d="M200.96,193.56l-6.51-3.77c0,2.56,0.41,4.76,1.13,6.62c1.85-0.04,3.7-0.09,5.55-0.13
						C201.04,195.41,200.96,194.52,200.96,193.56z"/>
					<path class="st17" d="M203.64,180.98l-6.51-3.77c-1.7,4.19-2.68,8.54-2.68,12.58l6.51,3.77v0
						C200.96,189.52,201.94,185.18,203.64,180.98z"/>
				</g>
			</g>
			<g id="XMLID_738_">
				<g id="XMLID_980_">
					<path class="st10" d="M215.24,181.06c0.54,0.31,1.13,0.46,1.77,0.46c0.83,0,1.73-0.27,2.64-0.79c2.94-1.7,5.24-5.69,5.24-9.08
						c0-1.85-0.68-3.27-1.92-3.98c-1.25-0.71-2.81-0.6-4.41,0.33v0c-2.94,1.7-5.24,5.69-5.24,9.08
						C213.33,178.93,214.01,180.35,215.24,181.06z"/>
				</g>
				<g id="XMLID_764_">
					<path class="st10" d="M224.41,195.67c1.9-1.92,3.62-4.17,5.05-6.6v-1.34c0-2.81-1.04-5.02-2.88-6.08
						c-1.8-1.04-4.1-0.87-6.46,0.5l-2.67,1.53c-4.09,2.36-7.39,7.54-8.11,12.39C214.36,195.95,219.38,195.81,224.41,195.67z"/>
				</g>
			</g>
		</g>
	</g>
</g>
<g id="Plants">
	<g id="Plants_10_">
		<g id="XMLID_860_">
			<g id="XMLID_864_">
				<path id="XMLID_866_" class="st2" d="M432.15,354.65c0,0,1.33-11.68,7.14-20.74c5.81-9.06,13.79-14.72,21.24-15.31
					s13.46,6.26,5.49,10.97c-7.97,4.71-22.13,9.51-28.64,27.11L432.15,354.65z"/>
				<path id="XMLID_865_" class="st17" d="M432.15,354.65c0,0,1.33-11.68,7.14-20.74c5.81-9.06,13.79-14.72,21.24-15.31
					s13.46,6.26,5.49,10.97c-7.97,4.71-22.13,9.51-28.64,27.11L432.15,354.65z"/>
			</g>
			<g id="XMLID_862_">
				<path id="XMLID_863_" class="st10" d="M434.34,351.61c-0.03,0-0.05-0.01-0.08-0.02c-0.2-0.08-0.3-0.31-0.22-0.52
					c7.86-19.36,22.82-27.44,29.64-29.01c0.21-0.05,0.43,0.08,0.48,0.3c0.05,0.21-0.08,0.43-0.3,0.48
					c-6.68,1.54-21.34,9.48-29.08,28.53C434.71,351.55,434.52,351.65,434.34,351.61z"/>
			</g>
		</g>
		<g id="XMLID_259_">
			<g id="XMLID_857_">
				<g id="XMLID_858_">
					<path id="XMLID_859_" class="st2" d="M474.12,351.84c-0.67,1.52-2.33,2.31-3.88,2.93c-1.54,0.62-3.22,1.29-4.05,2.73
						c-1.68,2.9,1.08,6.99-0.73,9.81c-0.76,1.19-2.17,1.81-3.55,2.06c-1.15,0.22-2.32,0.21-3.49,0.31
						c-0.56-0.01-1.12-0.05-1.66-0.13c-1.6-0.23-3.34-0.31-4.8,0.51c-2.31,1.3-3.02,4.21-4.42,6.46c-1.68,2.69-4.65,4.45-7.77,4.88
						c-1.04,0.14-2.97,0.32-4.02-0.27c-0.08-0.05-0.15-0.09-0.22-0.14c-0.01,0-0.01-0.01-0.02-0.02c-0.14-0.16-0.33-0.37-0.41-0.49
						c-0.02-0.02-0.03-0.04-0.04-0.07c-0.41-1.51,0.26-3.07,0.29-4.63c0-0.1,0-0.19,0-0.28c-0.06-1.81-0.12-3.61-0.16-5.41
						c-0.08-3.32-0.12-6.64-0.1-9.96c0.02-2.16-0.24-4.52,0.68-6.55c1.01-2.23,3.52-2.28,4.47-4.48c0.38-0.87,0.58-1.81,0.95-2.69
						c1.1-2.59,3.76-4.46,6.58-4.59c4.39-0.22,8.32,3.33,12.71,3.01c1.13-0.09,2.24-0.43,3.36-0.64c3.55-0.67,7.66,0.35,9.66,3.35
						C474.33,348.81,474.73,350.46,474.12,351.84z"/>
				</g>
			</g>
			<g id="XMLID_737_">
				<path id="XMLID_855_" class="st10" d="M434.7,373.52c-0.01,0-0.02,0-0.03-0.01c-0.2-0.05-0.32-0.26-0.26-0.46
					c6.06-22.74,30.03-26.03,35.63-25.63c0.2,0.02,0.36,0.19,0.35,0.4c-0.01,0.21-0.19,0.36-0.4,0.35
					c-5.48-0.4-28.92,2.82-34.86,25.07C435.08,373.44,434.89,373.55,434.7,373.52z"/>
			</g>
			<g id="XMLID_733_">
				<path id="XMLID_736_" class="st10" d="M461.33,361.99c-0.07-0.01-0.14-0.05-0.2-0.1c-0.06-0.06-6.17-6.09-16.31-4.59
					c-0.2,0.03-0.39-0.11-0.43-0.32c-0.03-0.2,0.11-0.4,0.32-0.43c10.53-1.55,16.89,4.74,16.95,4.81c0.15,0.15,0.14,0.38,0,0.53
					C461.57,361.98,461.45,362.02,461.33,361.99z"/>
			</g>
		</g>
	</g>
</g>
<g id="Clouds">
	<g id="Clouds_1_">
		<path class="st18" d="M377.12,89.54l35.9,20.73c2.28,1.32,4.13,0.25,4.13-2.38c0-2.63-1.85-5.84-4.13-7.15l-4.44-2.56v-0.46
			c0-4-2.81-8.86-6.27-10.86h0c-1.54-0.89-2.95-1.06-4.04-0.62V85.2c0-5.56-3.9-12.32-8.71-15.09c-4.81-2.78-9.25-1.45-9.25,4.11
			v7.01l-3.18-1.22c-2.28-1.32-4.13-0.25-4.13,2.38C372.99,85.02,374.83,88.23,377.12,89.54z"/>
		<path class="st18" d="M419.71,80.44l31.26,18.05c1.43,0.83,2.59,0.16,2.59-1.49c0-1.65-1.16-3.66-2.59-4.48l-4.79-2.77
			c0.38-0.77,0.59-1.74,0.59-2.9v-2.5c0-4.45-3.12-9.86-6.98-12.09c-3.56-2.06-6.5-0.66-6.92,3.08c-0.78-1.12-1.74-2.07-2.78-2.67
			c-2.58-1.49-4.66-0.28-4.66,2.69v1.67c0,0.25,0.02,0.51,0.05,0.76l-5.77-3.33c-1.43-0.83-2.59-0.16-2.59,1.49
			C417.12,77.61,418.28,79.61,419.71,80.44z"/>
	</g>
</g>
<g id="Character">
	<g id="Character_3_">
		<g id="XMLID_729_">
			<g id="XMLID_1087_">
				<path class="st19" d="M389.72,253.42c1.37-0.41,3.82-1.99,5.27-3.66c9.13-10.41,12.16-17.83,16.16-24.57l-0.35-11.02
					c-6.47-0.2-9.93,6.11-13.45,12.06c-4.2,7.1-8.24,13.27-11.08,16.23c-5.39,2.51-18.05,6.36-23,7c-0.88,0.11-1.76-0.11-2.49-0.59
					c-1.95-1.28-3.45-1.48-5.51-2.19c-1.61-0.56-2.29-1.32-2.59-1.03c-0.39,0.38-0.81,1.44,0.17,2.55c0.49,0.56,1.39,1.16,2.54,1.9
					c0,0-3.54,0.94-6.7,0.11c-4.29-1.13-6.31,0.94-3.41,5.59c1.04,1.67,5.13,4.34,13.41,3.62c2.39-0.21,5.83-0.41,8.8-1.04
					C375.46,256.68,384.29,255.04,389.72,253.42z"/>
				<path class="st13" d="M402.03,218.21c-4.45,5.69-12.31,19.35-12.31,19.35s2.58,6.85,9.52,7.98l11.15-15.06
					c0,0,5.28-10.42,1.54-16.51C411.93,213.98,406.28,212.77,402.03,218.21z"/>
				<g id="XMLID_1136_">
					<rect id="XMLID_1142_" x="428.77" y="367.54" class="st19" width="7.27" height="12.96"/>
					<polygon id="XMLID_1141_" class="st19" points="410.84,366.84 403.58,367.1 403.21,353.39 410.84,353.13 					"/>
					<path class="st14" d="M437.06,255.35l-35.95-0.08c0,0-0.35,8.32-0.79,19.01c12.16,0.95,24.31,2.01,36.43,3.21
						C436.93,266.93,437.06,257.92,437.06,255.35z"/>
					<path class="st14" d="M416.74,285.54c-5.61-0.45-11.22-0.86-16.82-1.26c-0.63,15.82-1.27,32.73-1.22,35.4
						c0.08,4.56,4.22,43.58,4.22,43.58c4.97,1.75,8.39-0.67,8.39-0.67s2.34-25.9,2.68-30.88c0.44-6.43-0.9-12.03-0.9-12.03
						L416.74,285.54z"/>
					<path class="st14" d="M436.59,287.28c-6.44-0.6-12.88-1.18-19.32-1.69c0.73,7.7,2.86,30.16,3.8,37.88
						c1.3,10.75,7.19,50.71,7.19,50.71c4.56,1.98,8.09-0.17,8.09-0.17s0.73-28.52,1.28-39.37c0.41-7.99-1.47-11.82-1.64-13.9
						C436,320.74,436.3,303.94,436.59,287.28z"/>
					<path id="XMLID_1139_" class="st6" d="M428.77,376.76v-1.08c-0.7,0.32-2.31,6.74-5.19,9.47c-2.29,2.18-5.42,4.69-6.21,7.12
						c-0.83,2.53,4.35,3.92,6.5,3.52c2.49-0.46,6.8-2.28,7.88-3.98c1.08-1.69,1.59-4.19,2.47-5.43c0.88-1.24,2.91-2.62,3.38-4.06
						c0.26-0.79-0.05-2.51-0.42-3.97c-0.34-1.34-0.7-2.81-1.14-2.68c0,0.16,0,0.83,0,0.83c-0.53,0.61-1.99,1.21-3.63,1.28
						C431.34,377.82,428.76,377.6,428.77,376.76z"/>
					<path id="XMLID_1138_" class="st6" d="M403.5,364.77c-0.38,0.01-0.68,0.57-1.52,1.51c-1.01,1.13-2.65,2.36-4.28,3.2
						c-2.72,1.42-8.01,3.6-10.41,4.72c-1.5,0.7-1.43,2.58,0.12,3.65s5.28,1.84,9.76,0.8c2.44-0.57,5.62-2.92,7.63-2.79
						c2.01,0.13,5.78,0.1,7.26-0.97c1.49-1.07,0.89-3.34,0.47-5.3c-0.46-2.14-1.03-5.47-1.71-5.32v0.74
						c-0.87,1.38-5.38,1.94-7.3,0.92L403.5,364.77z"/>
					<path class="st6" d="M414.61,285.38l-1.2,31.69l3.33-31.52C416.03,285.49,415.32,285.44,414.61,285.38z"/>
				</g>
				<g id="XMLID_1122_">
					<path class="st2" d="M432.99,215.06l-10.64-0.64l-10.13-0.45c-8.24,0.92-10.17,5.15-10.56,13.53
						c-0.55,11.79-1.47,42.44-1.47,42.44c8.11,6.1,31.8,6.54,37.15,0.48l-0.03-25.9l1.26-17.26
						C438.97,216.44,432.99,215.06,432.99,215.06z"/>
				</g>
				<g id="XMLID_1094_">
					<path class="st6" d="M414.54,203.8c5.98,0,10.82-5.05,10.82-11.27c0-1.35-0.24-2.63-0.65-3.83c-7.01,1.2-14.04,2.31-21.08,3.34
						c0.03,0.16,0.06,0.32,0.09,0.49C405.02,198.62,408.56,203.8,414.54,203.8z"/>
					<g id="XMLID_1102_">
						<path class="st6" d="M428.55,206.55c0.67-1.33,2.32-9.45,2.32-9.45l-4.25,5.46l-0.12,5.71
							C426.51,208.26,427.89,207.88,428.55,206.55z"/>
						<path class="st6" d="M430.88,197.09c1.59-4.17,1.47-7.74,0.56-9.58c-0.96,0.17-1.91,0.34-2.87,0.51l-0.82,9.44L430.88,197.09z
							"/>
						<path class="st19" d="M405.75,206.09c0.76,2.84,2.35,4.91,4.87,5.31c1.51,0.24,4.62-0.25,4.62-0.25l-0.01,3.91
							c-3.7,7.12,6.59,7.37,11.14,0.34l0.26-12.86c0,0,1.02,2.33,4.25,0.73c1.8-0.9,3.97-3.57,2.69-6.39
							c-1.26-2.76-3.69-1.97-4.46-1.12c-0.77,0.84-1.67,2.1-2.29,1.71c0,0,1-4.78-0.09-9.11c-7.3,1.26-14.61,2.43-21.93,3.51
							C404.19,198.74,404.67,202.08,405.75,206.09z"/>
						<path class="st6" d="M426.81,198.57c0.32,0.01,1.51-2.07,2.29-2.8c0.51-0.48,0.59-1.51,0.7-2.15c0.2-1.17,0.31-2.35,0.4-3.53
							c0.06-0.79,0.12-1.58,0.15-2.37c-1.97,0.35-3.94,0.71-5.91,1.04c0.14,0.74,0.18,1.53,0.31,2.21
							C425.3,193.78,425.75,198.55,426.81,198.57z"/>
						<path class="st6" d="M419.99,176.67c-1.36-0.28-2.74-0.45-4.11-0.59c-2.7-0.28-5.43-0.43-8.09-0.97
							c-0.16-0.03-0.32-0.06-0.47-0.01c-0.23,0.09-0.33,0.36-0.38,0.6c-0.13,0.66-0.02,1.34,0.25,1.95
							C411.45,177.21,415.72,176.87,419.99,176.67z"/>
						<path class="st20" d="M415.24,211.16l0,1.56c0,0,7.32-1.41,8.76-3.32c1.17-1.56,1.54-3.3,1.54-3.3
							c-0.32,0.81-1.4,2.07-2.72,2.8C420.86,209.98,415.24,211.16,415.24,211.16z"/>
					</g>
					<g id="XMLID_1095_">
						<polygon class="st20" points="413.25,194.73 409.08,200.92 413.12,201.84 						"/>
					</g>
				</g>
			</g>
		</g>
		<g id="XMLID_931_">
			<g id="XMLID_975_">
				<polygon class="st2" points="323.58,250.66 326.06,247.65 319.8,251.27 317.31,254.28 				"/>
				<polygon class="st9" points="323.58,250.66 326.06,247.65 319.8,251.27 317.31,254.28 				"/>
			</g>
			<g id="XMLID_936_">
				<polygon class="st2" points="334.36,264.12 340.63,260.5 345.86,255.87 339.6,259.48 				"/>
				<polygon class="st9" points="334.36,264.12 340.63,260.5 345.86,255.87 339.6,259.48 				"/>
			</g>
			<path class="st2" d="M383.18,242.95c-4.41-2.55-8.49-2.64-11.76-0.73c-0.96,0.56-4.5,2.6-5.9,3.4c-0.11,0.06-0.23,0.12-0.33,0.2
				c-0.26,0.14-0.51,0.31-0.76,0.48c-0.47,0.33-0.93,0.7-1.36,1.12c-0.06,0.05-0.12,0.12-0.2,0.18c-0.19,0.19-0.37,0.39-0.54,0.6
				c-0.22,0.25-0.43,0.5-0.63,0.77c-0.41,0.54-0.8,1.13-1.15,1.77c-0.18,0.31-0.35,0.64-0.51,0.98l-51.52-29.74l-6.26,3.61v3.99
				l0.53,0.31l0.49,0.29v0.84l-1.03,0.6v2.32l0.26,0.55c0.37-0.01,0.74-0.03,1.1-0.04c4.98-0.16,6.36,6.3,3.09,8.93l3.11,6.58
				l7.48,4.33l2.49-3.01l6.6,3.95l3.79,6.5l4.17,2.41l5.23-4.64l6.43,3.71l1.9,7.84c5.51,0.26,11.01,0.53,16.52,0.84
				c12.46,0.69,24.91,1.54,37.33,2.52C399.2,260.89,391.85,247.96,383.18,242.95z"/>
			<path class="st2" d="M359.94,281.92c0.32,1.04,0.66,2.07,1.04,3.08c0.07,0.23,0.15,0.45,0.25,0.7
				c3.58,9.41,9.27,17.46,15.69,21.17c0.82,0.47,1.62,0.86,2.42,1.16c0.45,0.19,0.9,0.33,1.35,0.45c0.4,0.11,0.8,0.21,1.2,0.27
				c1.33,0.24,2.61,0.23,3.81-0.01c0.17-0.04,0.35-0.08,0.52-0.12c0.25-0.05,0.49-0.12,0.73-0.22c0.18-0.07,0.37-0.14,0.56-0.22
				c0.2-0.07,0.39-0.16,0.58-0.27c0.18-0.08,0.36-0.17,0.53-0.28c0.09-0.05,0.18-0.1,0.27-0.15c0.04-0.01,0.08-0.04,0.12-0.07
				c1.43-0.82,4.96-2.86,5.91-3.4c4.75-2.75,7.83-9.7,7.84-19.53C388.49,283.46,374.22,282.62,359.94,281.92z"/>
			<path class="st2" d="M376.92,246.57c-4.26-2.46-8.19-2.64-11.4-0.95c-0.11,0.06-0.23,0.12-0.33,0.2
				c-0.26,0.14-0.51,0.31-0.76,0.48c-0.47,0.33-0.93,0.7-1.36,1.12c-0.06,0.05-0.12,0.12-0.2,0.18c-0.19,0.19-0.37,0.39-0.54,0.6
				c-0.22,0.25-0.43,0.5-0.63,0.77c-0.41,0.54-0.8,1.13-1.15,1.77c-0.18,0.31-0.35,0.64-0.51,0.98c-0.85,1.75-1.53,3.78-1.98,6.09
				l-55.79-32.22v3.99l0.53,0.31l0.49,0.29v0.84l-1.03,0.6v2.32l0.26,0.55c0.37-0.01,0.74-0.03,1.1-0.04
				c4.98-0.16,6.36,6.3,3.09,8.93l3.11,6.58l7.48,4.33l2.49-3.01l6.6,3.95l3.79,6.5l4.17,2.41l5.23-4.64l6.43,3.71l1.9,7.84
				c5.51,0.26,11.01,0.53,16.52,0.84c10.05,0.55,20.09,1.21,30.11,1.96C391.39,261.91,384.69,251.06,376.92,246.57z"/>
			<path class="st2" d="M390.23,283.63c0.02,0.26,0.03,0.52,0.03,0.78c0,3.8-2,5.73-4.47,4.31c-1.64-0.95-3.06-3.13-3.84-5.6
				c-7.33-0.44-14.66-0.85-22-1.21c0.32,1.04,0.66,2.07,1.04,3.08c0.07,0.23,0.15,0.45,0.25,0.7c3.58,9.41,9.27,17.46,15.69,21.17
				c0.82,0.47,1.62,0.86,2.42,1.16c0.45,0.19,0.9,0.33,1.35,0.45c0.4,0.11,0.8,0.21,1.2,0.27c1.33,0.24,2.61,0.23,3.81-0.01
				c0.17-0.04,0.35-0.08,0.52-0.12c0.25-0.05,0.49-0.12,0.73-0.22c0.18-0.07,0.37-0.14,0.56-0.22c0.2-0.07,0.39-0.16,0.58-0.27
				c0.18-0.08,0.36-0.17,0.53-0.28c0.09-0.05,0.18-0.1,0.27-0.15c0.04-0.01,0.08-0.04,0.12-0.07c4.56-2.88,7.49-9.76,7.49-19.39
				c0-1.32-0.06-2.64-0.17-3.98C394.3,283.91,392.27,283.76,390.23,283.63z"/>
			<path class="st9" d="M381.94,283.12c0.78,2.47,2.21,4.65,3.85,5.6c2.47,1.43,4.47-0.5,4.47-4.31c0-0.25-0.02-0.52-0.04-0.78
				C387.46,283.45,384.7,283.29,381.94,283.12z"/>
			<path class="st15" d="M383.18,242.95c-4.41-2.55-8.49-2.64-11.76-0.73c-0.96,0.56-4.5,2.6-5.9,3.4c3.21-1.7,7.15-1.51,11.4,0.95
				c7.77,4.49,14.47,15.34,17.64,27.26c2.41,0.18,4.81,0.37,7.22,0.56C399.2,260.89,391.85,247.96,383.18,242.95z"/>
			<path class="st15" d="M396.33,284.04c0.11,1.33,0.17,2.66,0.17,3.98c0,9.63-2.93,16.51-7.49,19.39c1.43-0.82,4.96-2.86,5.91-3.4
				c4.75-2.75,7.83-9.7,7.84-19.53C400.62,284.33,398.48,284.19,396.33,284.04z"/>
			<g id="XMLID_722_">
				<path class="st2" d="M400.92,284.36c-1.54,0.89-3.05,1.76-4.44,2.56c0.01,0.37,0.02,0.74,0.02,1.1c0,9.63-2.93,16.51-7.49,19.39
					c1.43-0.82,4.96-2.86,5.91-3.4c4.75-2.75,7.83-9.7,7.84-19.53C402.15,284.44,401.53,284.4,400.92,284.36z"/>
				<path class="st17" d="M400.92,284.36c-1.54,0.89-3.05,1.76-4.44,2.56c0.01,0.37,0.02,0.74,0.02,1.1
					c0,9.63-2.93,16.51-7.49,19.39c1.43-0.82,4.96-2.86,5.91-3.4c4.75-2.75,7.83-9.7,7.84-19.53
					C402.15,284.44,401.53,284.4,400.92,284.36z"/>
			</g>
			<g id="XMLID_724_">
				<polygon class="st11" points="303.29,231.02 302.26,231.61 358.28,263.95 358.28,261.92 303.29,230.17 				"/>
				<polygon class="st11" points="303.29,231.02 302.26,231.61 358.28,263.95 358.28,262.76 303.29,231 				"/>
			</g>
			<path class="st21" d="M391.41,273.6c-2.71-9.65-8.18-18.35-14.5-21.99c-9.01-5.2-16.31,1.83-16.31,15.69
				c0,1.45,0.08,2.92,0.24,4.39c1.2,0.06,2.4,0.12,3.59,0.19C373.44,272.37,382.43,272.95,391.41,273.6z"/>
			<path class="st21" d="M363.11,282.08c2.89,8.73,7.99,16.37,13.81,19.73c9.01,5.2,16.31-1.83,16.31-15.69
				c0-0.76-0.03-1.53-0.07-2.3C383.14,283.17,373.12,282.59,363.11,282.08z"/>
			<path class="st15" d="M302.26,225.59l55.79,32.22c0.45-2.3,1.13-4.34,1.98-6.09l-51.52-29.74L302.26,225.59z"/>
		</g>
		<g id="XMLID_867_">
			<path class="st19" d="M434.63,215.9c-2.72,0.41-11.64,32.89-11.64,32.89c-0.99,0.79-14.57,7.67-18.94,9.4
				c-0.77,0.31-1.63,0.29-2.42,0.01c-2.1-0.76-3.52-0.62-5.57-0.83c-1.61-0.16-2.42-0.73-2.62-0.39c-0.26,0.44-0.38,1.55,0.79,2.37
				c0.59,0.41,1.56,0.78,2.8,1.22c0,0-2.32,0.8-5.41,0.74c-4.19-0.09-5.7,1.73-2.45,5.98c2.04,2.66,5.32,3.5,12.7,0.95
				c2.13-0.74,5.01-2.17,7.69-3.14c5.55-2.02,6.97-2.23,11.23-3.67c6.14-2.07,10.42-4.13,11.72-6.59
				c2.93-5.53,6.26-17.95,7.92-24.22C442.79,221.73,438.97,216.13,434.63,215.9z"/>
			<path class="st13" d="M432.99,215.06c-3.96,0.84-4.71,11.74-4.71,11.74l-4.34,16.78c6.31,6.44,12.25,3.9,12.25,3.9
				s3.05-8.49,4.54-16.47c1.48-7.99,0.25-10.9-1.24-12.96C438.02,215.98,435.54,215.41,432.99,215.06z"/>
		</g>
	</g>
	<g>
		<g>
			<path d="M89.49,156.76c-3.36,3.59-6.47,7.42-9.31,11.43c-0.47,0.66-0.12,1.67,0.54,2.05c0.75,0.44,1.58,0.12,2.05-0.54
				c2.7-3.81,5.65-7.42,8.84-10.83c0.55-0.59,0.59-1.53,0-2.12C91.05,156.2,90.04,156.17,89.49,156.76L89.49,156.76z"/>
		</g>
	</g>
	<g>
		<g>
			<path d="M71.41,145.7c16.07-3.48,32.06-8.64,48.67-8.4c-0.25-0.93-0.5-1.86-0.76-2.8c-1.32,0.66-2.63,1.34-3.92,2.05
				c-1.69,0.93-0.18,3.52,1.51,2.59c1.29-0.71,2.6-1.39,3.92-2.05c1.38-0.69,0.66-2.77-0.76-2.8c-16.88-0.25-33.14,4.97-49.47,8.51
				C68.73,143.22,69.53,146.11,71.41,145.7L71.41,145.7z"/>
		</g>
	</g>
	<g>
		<g>
			<path d="M54.33,142.02c-2.26,2-4.52,4-6.78,6c-0.48,0.42-0.58,1.29-0.23,1.82c0.38,0.58,1.02,0.83,1.69,0.69
				c1.81-0.39,3.62-0.78,5.43-1.17c0.77-0.17,1.29-1.1,1.05-1.85c-0.26-0.81-1.02-1.22-1.85-1.05c-1.81,0.39-3.62,0.78-5.43,1.17
				c0.49,0.84,0.97,1.67,1.46,2.51c2.26-2,4.52-4,6.78-6c0.59-0.52,0.57-1.6,0-2.12C55.83,141.45,54.96,141.47,54.33,142.02
				L54.33,142.02z"/>
		</g>
	</g>
	<g>
		<g>
			<path d="M54.19,115.42c14.63-7.76,30.15-13.85,46.42-17.1c-0.63-0.48-1.27-0.96-1.9-1.45c0.37,5.53-4.18,9.51-7.91,12.92
				c-5.13,4.68-10.4,9.19-15.6,13.78c-1.45,1.28,0.68,3.4,2.12,2.12c5.5-4.86,11.08-9.61,16.48-14.58c4.06-3.74,8.31-8.3,7.91-14.23
				c-0.07-1.02-0.9-1.65-1.9-1.45c-16.51,3.3-32.29,9.53-47.13,17.4C50.97,113.74,52.48,116.33,54.19,115.42L54.19,115.42z"/>
		</g>
	</g>
</g>
</svg>
